<mxfile host="app.diagrams.net" modified="2021-09-01T05:13:47.983Z" agent="5.0 (Macintosh; Intel Mac OS X 10_15_7) AppleWebKit/537.36 (KHTML, like Gecko) Chrome/92.0.4515.159 Safari/537.36" etag="VSiiV9ZdLWHhhwTFQMHy" version="15.0.4" type="github">
  <diagram id="IAcHk416VIu7WQLhN8JV" name="Page-1">
    <mxGraphModel dx="1426" dy="712" grid="1" gridSize="10" guides="1" tooltips="1" connect="1" arrows="1" fold="1" page="1" pageScale="1" pageWidth="827" pageHeight="1169" background="#09555B" math="0" shadow="0">
      <root>
        <mxCell id="0" />
        <mxCell id="1" parent="0" />
        <mxCell id="SDQ0Iv5YbxHpCSQwEZeH-4" value="" style="edgeStyle=orthogonalEdgeStyle;rounded=0;orthogonalLoop=1;jettySize=auto;html=1;strokeColor=#EEEEEE;fontColor=#FFFFFF;labelBackgroundColor=#09555B;" edge="1" parent="1" source="SDQ0Iv5YbxHpCSQwEZeH-2" target="SDQ0Iv5YbxHpCSQwEZeH-3">
          <mxGeometry relative="1" as="geometry" />
        </mxCell>
        <mxCell id="SDQ0Iv5YbxHpCSQwEZeH-2" value="" style="rounded=1;whiteSpace=wrap;html=1;fillColor=#B1DDF0;strokeColor=#BAC8D3;fontColor=#182E3E;" vertex="1" parent="1">
          <mxGeometry x="140" y="200" width="120" height="60" as="geometry" />
        </mxCell>
        <mxCell id="SDQ0Iv5YbxHpCSQwEZeH-3" value="&lt;font style=&quot;font-size: 21px&quot;&gt;你好&lt;/font&gt;" style="whiteSpace=wrap;html=1;rounded=1;align=center;fillColor=#B1DDF0;strokeColor=#BAC8D3;fontColor=#182E3E;" vertex="1" parent="1">
          <mxGeometry x="340" y="200" width="110" height="60" as="geometry" />
        </mxCell>
        <mxCell id="SDQ0Iv5YbxHpCSQwEZeH-7" value="" style="edgeStyle=orthogonalEdgeStyle;curved=0;rounded=1;sketch=0;orthogonalLoop=1;jettySize=auto;html=1;fontColor=#FFFFFF;strokeColor=#EEEEEE;" edge="1" parent="1" source="SDQ0Iv5YbxHpCSQwEZeH-6" target="SDQ0Iv5YbxHpCSQwEZeH-3">
          <mxGeometry relative="1" as="geometry" />
        </mxCell>
        <mxCell id="SDQ0Iv5YbxHpCSQwEZeH-6" value="" style="shape=actor;whiteSpace=wrap;html=1;rounded=0;sketch=0;fontColor=#182E3E;strokeColor=#BAC8D3;fillColor=#B1DDF0;" vertex="1" parent="1">
          <mxGeometry x="530" y="200" width="40" height="60" as="geometry" />
        </mxCell>
        <mxCell id="SDQ0Iv5YbxHpCSQwEZeH-8" value="Actor" style="shape=umlActor;verticalLabelPosition=bottom;verticalAlign=top;html=1;rounded=0;sketch=0;fontColor=#182E3E;strokeColor=#BAC8D3;fillColor=#B1DDF0;" vertex="1" parent="1">
          <mxGeometry x="160" y="370" width="30" height="60" as="geometry" />
        </mxCell>
        <mxCell id="SDQ0Iv5YbxHpCSQwEZeH-10" value="dispatch" style="html=1;verticalAlign=bottom;startArrow=oval;startFill=1;endArrow=block;startSize=8;fontColor=#FFFFFF;strokeColor=#EEEEEE;" edge="1" parent="1">
          <mxGeometry width="60" relative="1" as="geometry">
            <mxPoint x="230" y="400" as="sourcePoint" />
            <mxPoint x="280" y="400" as="targetPoint" />
          </mxGeometry>
        </mxCell>
      </root>
    </mxGraphModel>
  </diagram>
</mxfile>
